/* XPM */
static char *_e3081e4a6164b4ab2ffe6548c25a554qOIU0sQAFIu2siux[] = {
/* columns rows colors chars-per-pixel */
"64 64 192 2 ",
"   c #003700",
".  c #003D00",
"X  c #2E3F36",
"o  c #5F0000",
"O  c #640000",
"+  c #6C0000",
"@  c #740000",
"#  c #7C0000",
"$  c #7D1500",
"%  c #472708",
"&  c #462D0A",
"*  c #4D2C0A",
"=  c #532E0B",
"-  c #592F0C",
";  c #47310C",
":  c #49340D",
">  c #493A0E",
",  c #56310C",
"<  c #5A340D",
"1  c #5D390E",
"2  c #60370D",
"3  c #60390E",
"4  c #4F3221",
"5  c #483D2D",
"6  c #533422",
"7  c #543925",
"8  c #5B3A25",
"9  c #553D2A",
"0  c #5B3D2A",
"q  c #613B26",
"w  c #633E29",
"e  c #004400",
"r  c #004C00",
"t  c #005300",
"y  c #005B00",
"u  c #006300",
"i  c #006B00",
"p  c #007300",
"a  c #007B00",
"s  c #2E4137",
"d  c #2F4639",
"f  c #31473D",
"g  c #314A3D",
"h  c #4C422E",
"j  c #54412D",
"k  c #5C412D",
"l  c #4D4332",
"z  c #524534",
"x  c #5B4432",
"c  c #554936",
"v  c #554739",
"b  c #564B3A",
"n  c #5B4D3C",
"m  c #57513D",
"M  c #5B513D",
"N  c #63432D",
"B  c #69442D",
"V  c #624733",
"C  c #684731",
"Z  c #634936",
"A  c #6A4B35",
"S  c #634C3B",
"D  c #6A4D39",
"F  c #66503F",
"G  c #6E513C",
"H  c #7E5439",
"J  c #334C43",
"K  c #345245",
"L  c #34544A",
"P  c #38544E",
"I  c #36594D",
"U  c #365652",
"Y  c #365B54",
"T  c #385C54",
"R  c #375C59",
"E  c #385B58",
"W  c #574F40",
"Q  c #5B4F41",
"!  c #575140",
"~  c #5C5241",
"^  c #5E5240",
"/  c #645341",
"(  c #6D5441",
")  c #6F5D44",
"_  c #625648",
"`  c #705643",
"'  c #6F6249",
"]  c #75644C",
"[  c #78694F",
"{  c #7A694F",
"}  c #7A6C54",
"|  c #7F6D59",
" . c #7F715A",
".. c #840000",
"X. c #8B0000",
"o. c #940000",
"O. c #9D0000",
"+. c #821700",
"@. c #851800",
"#. c #8B1A00",
"$. c #911C00",
"%. c #A30000",
"&. c #AC0000",
"*. c #B30000",
"=. c #BC0000",
"-. c #972900",
";. c #9B2B00",
":. c #A32E00",
">. c #A53200",
",. c #AA3400",
"<. c #AF3B00",
"1. c #B53B00",
"2. c #B33D00",
"3. c #C40000",
"4. c #CC0000",
"5. c #D10000",
"6. c #D80000",
"7. c #B54100",
"8. c #BC4300",
"9. c #BF4800",
"0. c #BB5E00",
"q. c #BF6400",
"w. c #BD6C00",
"e. c #BE7000",
"r. c #84553B",
"t. c #89583D",
"y. c #C34500",
"u. c #C44B00",
"i. c #CA4C00",
"p. c #C65100",
"a. c #CC5200",
"s. c #D25300",
"d. c #C46400",
"f. c #C36B00",
"g. c #CB6D00",
"h. c #C37400",
"j. c #855C40",
"k. c #895B41",
"l. c #866243",
"z. c #896245",
"x. c #87664C",
"c. c #8A664B",
"v. c #806A4F",
"b. c #8D6A4D",
"n. c #95694B",
"m. c #926D4E",
"M. c #806D54",
"N. c #806E54",
"B. c #8C6B53",
"V. c #806E5A",
"C. c #936E52",
"Z. c #817154",
"A. c #80725A",
"S. c #84745C",
"D. c #8A755E",
"F. c #85795F",
"G. c #8A795F",
"H. c #947154",
"J. c #95735B",
"K. c #9B7759",
"L. c #A37B58",
"P. c #857964",
"I. c #8A7C64",
"U. c #907D64",
"Y. c #9F7D63",
"T. c #008400",
"R. c #CC8200",
"E. c #CC8B00",
"W. c #94825D",
"Q. c #988364",
"!. c #988964",
"~. c #908169",
"^. c #A08964",
"/. c #A0846C",
"(. c #A38C6C",
"). c #A78F73",
"_. c #A79573",
"`. c #AE9673",
"'. c #AB9C73",
"]. c #AF977B",
"[. c #AF9C7B",
"{. c #B69E73",
"}. c #B69C7B",
"|. c #AFA27B",
" X c #B6A37B",
".X c #B69E82",
"XX c #AFA582",
"oX c #B6A282",
"OX c #BEA582",
"+X c #BAA886",
"@X c #BEA98A",
"#X c #C5B08C",
/* pixels */
"z b b b z z z z b n b b b b b z z b b b b b ^ ^ b b ! ^ W b b ^ b b b z z z c b ^ M z h b b b M b z b n b z z b z c b M ^ ^ n b ",
"M.} { } M.M.} ] ] { ] ] } S.S.V.A.} [ A.I.U.F.} } } A.F.S.M.A.P.M.S.F.D.F.F.F.G.G.I.G.S.S.A.Z.A.A.} M.V.Z.} { | D.S.M.M.Z.S.G.I.",
"b b b z z b Q ^ ^ ^ ^ n n ^ ^ ^ ^ ^ ^ ^ ^ ^ ! n b b b n b b z b ^ b b z z b n ^ b b b W b b b b b b b b b b v z z z b n b n b n ",
"* 2 1 < , < < * * = * < < < * < * < < , 1 , 1 * < , < < , * = < 1 1 , , < , , = , < , = 1 , 1 < = < 1 < = = , , , = = , = = = = ",
", : e e t y i i i i y r e r ; 1 * < , , 1 , 1 * < , < < , * , < 2 2 - - < , , < = < < = , , 1 < = < < < , = < : 6 8 N B N 8 ; * ",
"2 ; e e t y i i i i y r e r : < , , = * 1 < < % < = < , < = < < 1 3 = < , , = 1 = 1 < * = , 3 , = , = , < = < : 6 8 B B N 8 ; * ",
", : e e t y i i i i y t r r : < 1 * = * < 1 , * , = < , < = < < < 1 * < < < = < , < , * = = 3 1 , < = , < , < : 7 0 B B N 0 & * ",
"* : e e r y i i i i y t r r ; < 1 & T Y R : , , = = < = , , 1 < = < * 1 1 < * , , , = * , , 3 1 < < = , 1 < , ; 9 k C C k 9 % * ",
"* : e e t y i i i i u t r r ; < < ; R E R & < , , , = * 1 * 2 , * 1 * < 2 < , , - = * = < * 3 1 , 1 * = 2 * < ; 9 x A D V k & , ",
"* ; e e t u i p i i u y t r & = 1 & R E T & < < < , < = 1 * 1 < * < % < 1 , = = = < = = , * 2 , , 1 = - 1 * < & v Z G G S x & < ",
", & e e t u p p i p i y t r : , 1 & R E R & , = 1 = < < 1 * 2 < * , % < < , * = * 1 < = < * 1 , < 1 = = 1 * < & n S ( ( S v & , ",
"< & e e r y i p p p i y t t ; < < & R E R ; < % < * , , 1 * 1 , * < * < < = * * * < : o $ :.u.9.u.u.,.#.+ & , & n S ( ( Z v & , ",
", & e e t y i i p p i y t r & , 1 & R E R ; < * < % , = 1 = 1 < = < , 1 , = * = = = ; O +.>.u.u.u.a.,.#.+ & , & n / ( ( Z x & , ",
"= & e e t y i i i i u y t t & , < & R E T & , , < * , * : 4.&.X.X.&.3.: , = * , < * & + @.,.i.u.a.a.<.#.+ ; , & S / ` ( Z v : , ",
"= & e e r y i i i i y t r t ; < < & Y U Y % * J.H.B.: * : 3.%.X.X.&.3.: , < = < < * ; + @.,.a.a.a.s.<.#.+ : < & S F ( ( S v : = ",
", & e e r y i i i i y t r r ; < < : U U U ; : H.C.x.: * : =.O.....%.3.: < 1 < 3 < * : + @.,.a.a.a.a.1.#.+ : < & S ( ` ( S x ; * ",
"< : e e t y i i i u y t r r ; , < : I L I ; : C.C.b.: < : =.O.# # %.4.: 1 < < < , , : + #.,.p.a.a.s.1.$.+ : < & n S ( ` S x ; * ",
"= & e e t y i i i u y t r r ; , < & I L I : : m.C.b.; < : 3.%.....&.4.; < = = < < = : + @.,.p.a.s.s.1.#.+ : < & n S ( G Z x ; , ",
"= & e e t y i i i u y t e e & < < % I L L : ; b.C.b.& 1 : 4.&.X.X.&.5.: , * * < , * : + #.,.a.a.s.s.,.@.O : , & n F ( S x k & , ",
"< ; r e t u i i i y t t e e : 1 = % I L L : ; c.C.x.& < : 4.&.X.o.*.5.: , * * < = * & + #.,.a.a.a.a.,.@.O : < & v S D Z k k ; , ",
"< ; e e t u i i u y t t e e > 1 = : I L L & ; x.C.x.& = ; 3.&.X.o.&.4.: < * % , = * ; + #.,.a.a.u.u.>.@.O : < ; x Z Z x k 9 : , ",
", ; e e t u i i y t t r e e > < = : I L L & ; x.C.x.; * & 3.&.X.X.&.4.: < , % , < , : + @.,.u.u.u.u.>.@.+ ; 1 : x Z V k 0 9 : , ",
"* ; e e t u i i y y t r e e : < = ; I L L ; ; x.C.c.; = & 3.&.X.X.&.5.; , < * , , < ; O @.,.u.u.u.u.>.@.+ ; < : x Z N k 0 7 : < ",
"= : e e t u i i y y t r e e : < = % L L L : ; x.C.B.; , ; 3.&.X.X.&.4.; : E.g.g.h.: ; O @.>.u.u.i.u.>.#.+ ; < : Z Z N 0 0 7 ; 1 ",
", : r r y i i i y y t r e e ; < , % L L L : : B.J.B.; , ; 3.&.X.X.*.6.; : E.g.f.w.; & O +.>.u.u.9.9.>.@.@ & , & Z Z V N 0 7 ; , ",
"< : r r y i p i u y t r e e : , < & I U U : : C.J.H.; , ; 3.&.X.X.&.5.; : E.f.q.e.& & O +.>.9.9.8.9.>.@.+ & < & x Z A C k 7 & , ",
"1 : r r t i p i i y t t e e : , < & U Y R ; : J.K.J.: , ; 3.&.X.X.%.4.: : E.f.d.h.& & O +.>.y.y.8.u.,.#.+ & < % x V D A k 7 ; , ",
"1 ; r r t i p i i u t r e e : , = & T E R & : J.K.J.; , ; =.%...X.%.3.; ; E.f.f.h.& : O +.>.u.u.7.u.,.#.+ & 1 % 9 V D A k 7 : < ",
", * r r t i i i i y t r e e : < = ; R R R & : J.Y.J.: , * =.%...X.%.3.: : E.g.g.h.* : O @.>.i.y.7.u.,.#.+ : 1 % x Z D A k 7 : , ",
"^ n b b b b z l l 5 5 z b b b b b b b Q ^ ^ ^ _ ^ ^ ^ n M ^ ^ n n ^ ^ ^ ^ / ^ ^ v b Q n b b b b b b ^ ^ ^ ^ ^ ^ b b b b b b b b ",
"A.S.S.I.I.~.I.F.G.S.A.S.F.F.S. .F.S. .A.A.| A.S.F.S.} ] ] { } M.] ] { S.A.} ] ) | G.I.F.A. .F.F.} A.G.F. .Z.A.F.F.F.F.F.F.P.I.I.",
"[.[.oX@X#X@X}._./.W.Q.(._.].}.oXoX.X[..XoXoXoX@XoXoXOX@XOX`.(.^.^.^.(.(.^.^.(.}.OXOXoX_._.|.+XXX X(.W.(. X+X'.Q.Q.!.)._._._._._.",
"Q.(.`.}..X}.oXoX'.}. X{.}. XOXOX`.}.}.}.`.(.(.^.Q.^.(._.`.[..XoX[.(.W.(.[.].!.!.@XoX[._.[.+X#X#X@X].(._.oX@XoX.X(.(.^.(._.oXoX].",
"S.M.} M.} S.F.G.U.I.U.G.G.G.A.M.{ ] ] ] M.V.V.M.S.F.I.U.I.F.F.S.F.S.A.S.F.A.A.G.A.A.A.A.F.I.F.F.} } } } ] ] { A.S.A.{ ] V.S.F.S.",
"^ b z l l z b b z z z z b n n n ^ n b b b b c v b ^ ^ M b b b b ^ ^ ^ ^ ^ n b ^ ^ ^ ^ ^ b n ^ b Q b b n ^ ^ ^ ^ M ^ ^ ^ ^ ^ ^ b ",
", = , < , < , = 2 1 < < < , , < < * 1 1 < 3 < = * , = < = < < * = < 1 = , < , 3 , , < < 1 1 , , 1 2 = = < < , = < = 2 * 1 * 1 * ",
"< = < 1 < , < = 1 1 < < < = * < 1 * 1 2 : x Z D D x x : , 1 < , * , 1 * * 1 , 1 < , < < 1 1 = = 1 : . . r y i i i i u t e e : * ",
"< < , 1 < < < * < < 1 , < = * < < = < 1 : x V D D x x ; = < , , * = 2 * * < , , < = , < , < = = 1 :   . r y i i i p i t e e : * ",
"< < = < < , 1 = < < 2 < , , = , < , , 1 : x Z D D V x & * , , * = * 1 , * < , , < * , < = < - * 1 : . . r y i i p p i y r e : = ",
"< 1 = , < , 1 , 1 , 3 < = , < , , < = < : x Z D D V x & * 1 1 * < * < 1 = , < 1 3 * ; Y U U * * < & . . r y i i i p i y r r : , ",
", = < , = < 1 , , 1 < < = = 1 , , , = 1 : k V D G Z x ; , < , 1 1 , = 1 < , < , = , : R U L : * < : . . r y i i i i u y r t : < ",
"* , < , = , = , , 1 < < = = < = * , , < : k V D G Z x : , < , < 1 1 , , = , 1 < * = & Y L L : , 1 : . . r t i i i i y t r r : < ",
"% < < , < - * , , < < 1 < = < = * < 1 < ; k V G G Z x : , 1 , , < 1 < = * < 1 , * = % T U I : < < : e . e t y u u u t r e r : * ",
"% 1 < = < , = : O +.;.8.8.1.1.:.+.O : < ; k V G G Z x > = < , , , < < , = , < * * , % T Y Y ; 1 , : e . e r y y u y t e e e : * ",
"= , , = = < < ; O $ ;.8.y.8.1.:.+.O ; < : 9 V D G Z x : = , < , , , , < , , < * , < & U Y R ; 1 * & e e r t y u u y r e e e : , ",
"= = , = * , 1 ; o $ ;.y.y.8.7.;.+.O & < : 9 x A G Z x : & 3.&.X.X.&.3.: , = < , , 1 & T Y R : 1 * & e e r t u i u y r e . e ; , ",
"= = < , * , < & O +.:.y.y.8.7.;.+.O ; 1 : 9 k A D Z x : & 3.%.....%.3.; = * b.C.m.: ; Y Y R : 1 = & e e t y u i y y r e . e ; , ",
"= < 1 1 = - < & O +.:.y.y.8.7.;.+.O : 1 ; k k A D V x : & 3.%.....O.=.& = & z.n.c.: : L U R ; < 1 & e e r y u u y y r e . . ; < ",
", * = < , < 1 & O +.:.y.8.y.8.;.+.O : < ; k k N C N k & & =.O...# O.*.& = : r.k.k.: : K P T & < < & e e t y u u y y r e . e ; = ",
", * = < , , < : O +.:.8.8.8.8.;.+.O ; , : 9 k C N k 0 ; & =.O...# O.*.& , : r.t.t.; : g J L ; 1 < & r r t y i u y y r e . e ; * ",
", * = < , , 1 : + @.>.y.y.y.y.:.+.O : , : 7 k B N 0 7 : & =.o.# # o.&.& < : r.r.r.; & g J K ; < , & e r y u i u y y r e . . ; , ",
", = , < , < < ; + #.,.i.i.y.y.:.+.O : < : 0 N B B 0 6 : : *.o.# # o.&.; , : r.t.H ; & J J K ; , < & r r y u i y y t r e . . ; < ",
"= < 1 , , < < & O @.:.y.y.8.8.;.+.O : < : 0 w B B 8 6 : : *.o.# # o.*.; = ; k.n.j.; ; g f J : , < ; r r t u i y y y r r e . ; , ",
"= < 1 < , < , % O +.:.8.8.8.7.;.$ O ; , : 7 w B w 8 6 : : &.o.# @ o.*.: = & c.L.n.; ; d s f : < 1 : r r t u i y y y t r e e & * ",
", , , , < < , & O +.:.8.8.8.7.;.$ o & , ; 6 8 w q 8 6 : ; &.o.# # O.=.: * % m.L.K.; & g X d : < < & r r y i p i u u t r e e & * ",
", & R.d.0.w.: : O +.;.8.8.8.7.;.$ O ; , & 4 8 w w 0 7 : & *.o.# # %.3.; * % H.L.H.& % g s s ; , , & t t y i p i i i t e e e ; = ",
", & R.d.q.w.: & + @.:.8.8.8.8.-.$ O : , & 7 0 B A N 0 : & =.O...X.&.4.& , & H.L.m.: : K J K ; < * : r r y i a i i i t r . e : = ",
"< : R.d.d.f.: ; + @.:.8.7.7.7.;.+.O : < ; 7 k C A C 0 : & =.%.....%.3.; , & m.K.b.: ; K K L : 1 * : e r y i a i i i y r . . : = ",
"< : R.d.d.f.; : + @.:.7.<.2.1.;.+.O ; 1 : 9 k A D V k : ; =.%.....%.3.: < ; m.H.c.: ; K L I : 1 * : e r y i a p i i y r . . ; , ",
", : R.d.d.w.: ; + @.:.7.<.<.1.;.+.O & 1 : 9 k A G V j : : =.%.....O.=.: < : n.n.l.; & K L I : 1 , : t t i p T.p i i y r . . ; 1 ",
", ; R.d.d.w.: * + @.:.7.2.2.7.;.$ O & , : 9 V G G V 9 : : =.%.....O.*.: < : n.n.l.; * L L U : , , : t t i p T.a p p i t e e ; 1 ",
"^ ^ ^ ^ ^ ^ b b _ ^ n b c n c v z z z h z c n / z z z z b b b v ^ M n b n b b b Q n ^ Q b b n ^ c z z b ^ ^ b z b Q ^ ^ n b b n ",
"F.G.I.U.I.A.S.F.F.M.} M.v.{ v.M.S.} } } M.M.Z.F.S.S.Z.M.{ ] ) ) S.M.{ { { S.F.G.v.V.S.D.M.{ } S.] ' ' { S.F.Z.] M.S.D.S.M.M.} M.",
"^ b l z m _ m l h z n ^ b c b n Q b b M ^ b l z b M ^ ^ b v z v z b b b n n n n b z 5 5 z b b b b b b b b b b b b n n b b n n b "
};
