/* XPM */
static char *_a202537fab8456c82ecf36ecf5a09385lJiHqiyGqFIoNcq[] = {
/* columns rows colors chars-per-pixel */
"64 64 129 2 ",
"   c None",
".  c #555555",
"X  c #5C5C5C",
"o  c #646464",
"O  c #696769",
"+  c #6C6C6C",
"@  c #71716F",
"#  c #6F6F70",
"$  c #706F70",
"%  c #6F7070",
"&  c #747474",
"*  c #787877",
"=  c #777778",
"-  c #787778",
";  c #777878",
":  c #7C7C7C",
">  c #817F7F",
",  c #7F807F",
"<  c #81817F",
"1  c #7F8181",
"2  c #838383",
"3  c #888787",
"4  c #878887",
"5  c #888887",
"6  c #878788",
"7  c #888788",
"8  c #878888",
"9  c #8D8D8C",
"0  c #8C8D8D",
"q  c #8D8D8D",
"w  c #8C8C8C",
"e  c #8E8E8D",
"r  c #8F8F8D",
"t  c #8E8D8E",
"y  c #8F8D8F",
"u  c #8D8E8E",
"i  c #8E8E8E",
"p  c #8F8F8E",
"a  c #8E8E8F",
"s  c gray56",
"d  c #8A8A8A",
"f  c #8F908D",
"g  c #8F908F",
"h  c #90908F",
"j  c #90908D",
"k  c #908E90",
"l  c #8F9090",
"z  c #909090",
"x  c #919190",
"c  c gray57",
"v  c #929290",
"b  c #919192",
"n  c #909292",
"m  c #919292",
"M  c #929292",
"N  c #929392",
"B  c #939392",
"V  c #939293",
"C  c #939393",
"Z  c #939394",
"A  c gray58",
"S  c #959494",
"D  c #969694",
"F  c #959596",
"G  c #969496",
"H  c #969596",
"J  c #949696",
"K  c gray59",
"L  c #979696",
"P  c #979797",
"I  c #939393",
"U  c #989896",
"Y  c #999997",
"T  c #989898",
"R  c #999899",
"E  c gray60",
"W  c #9A9999",
"Q  c #999A99",
"!  c #9A9A9A",
"~  c #9B9B9B",
"^  c #9C9B9B",
"/  c gray61",
"(  c #9C9C9D",
")  c #9D9D9D",
"_  c #9E9D9D",
"`  c #9D9E9D",
"'  c #9D9F9D",
"]  c #9E9E9C",
"[  c #9D9E9E",
"{  c #9F9F9E",
"}  c #9E9F9F",
"|  c #9F9F9F",
" . c #9B9B9B",
".. c #A09F9F",
"X. c #A0A19F",
"o. c #9E9EA0",
"O. c #A09EA0",
"+. c #A09FA0",
"@. c #A0A0A0",
"#. c #A1A2A1",
"$. c #A2A2A0",
"%. c #A0A0A2",
"&. c #A0A3A2",
"*. c #A2A2A2",
"=. c #A3A2A3",
"-. c #A5A3A3",
";. c #A3A4A3",
":. c #A3A4A4",
">. c #A4A4A4",
",. c #A4A5A4",
"<. c #A5A5A4",
"1. c gray65",
"2. c #A6A7A7",
"3. c #A3A3A4",
"4. c gray66",
"5. c #A9AAA9",
"6. c #AAA9AA",
"7. c #ABABAA",
"8. c #ACACAC",
"9. c #AEACAC",
"0. c #A9A9A9",
"q. c #B2B2B2",
"w. c #B4B5B4",
"e. c gray71",
"r. c #B8B8B7",
"t. c #BBB9B9",
"y. c #BDBBBB",
"u. c #BCBCBC",
"i. c #C1C0C0",
/* pixels */
"T 2 : ( 7.( 2 : ( q 8 + q M q 2 8 H q M 2 2 T #.7.7.8 q H H ^ ( H H #.( 2 M e.M 2 : 8 2 8 2 M 2 H >.q.Z :.#.H 8.e.q ( ;.H ( t.: ",
"#.                            q H                             8 3                             : 2                             & ",
"7.                            H 8                             & &                             & &                             o ",
"r.                            M :                             : 2                             2 :                             X ",
"T                             & o                             M (                             & :                             o ",
":                             & +                             q 8                             + &                             & ",
"+                             2 +                             2 2                             & &                             + ",
"1 + : 8 T w : : : 2 q 2 7 2 & & & & 2 2 : q & & & : & 2 2 8 2 2 2 : 2 2 : + & & & : M 8 8 2 2 & & & 2 q & & 2 2 2 O.T : : : 8 2 ",
": & 2 ( T 8 2 & & 8 q 2 2 2 & : 1 2 & 8 2 H 8 : o & o : 2 2 o X o 2 : : : : & + & 8 M M 2 2 2 2 : : 2 ( 2 & + + - O.M 2 2 + : ( ",
"              & :                             + :                             & :                             2 &               ",
"              o 2                             & 2                             q 4                             2 X               ",
"              : 2                             . +                             < q                             & o               ",
"              2 :                             X o                             2 8                             + &               ",
"              8 M                             + 5                             : +                             M :               ",
"              & 8                             : 2                             f +                             2 2               ",
"H 8 d T q q q 2 : & 8 2 > o X + & + X & + : & + : 8 : & & & + % l M #.( q 2 q 8 8 : : 2 : : & & X 1 8 2 : 8 2 2 q 8 8 : X & q f ",
"M , q 8 8 : 2 M M M ( M 2 2 2 & + + . + q 2 : : : 2 : : q M 8 : : 2 M 2 : 2 8 8 2 & 2 2 2 2 2 8 : : 2 T H 2 & + : : : = & & T 2 ",
"H                             2 o                             , +                             2 &                             $ ",
"8.                            q :                             + +                             & 2                             + ",
"#.                            + X                             & :                             : 2                             : ",
"i.                            o o                             : :                             M :                             2 ",
"y.                            : :                             T :                             ( 2                             @ ",
"-.                            & 2                             w +                             2 +                             & ",
"M 2 2 2 : 8 >.8 : & + & & 8 8 8 : : o 2 2 : 2 2 : : q 8 : & : 2 o o 2 2 : 1 o 2 : 8 : 8 2 + + o o # H 2 : U H & & 2 : : : 8 q 2 ",
"#.q 2 2 : : h 2 & + : : : 8 8 2 8 5 8 M 8 8 & 2 M 2 2 , : & : 2 o o : : 2 : o 2 : q M : : 2 q : + + + & 2 w & : & 2 2 2 & 2 H & ",
"              >.8                             2 (                             : :                             8 2               ",
"              q :                             : :                             8 &                             >.>.              ",
"              & &                             + 8                             M :                             M q               ",
"              q :                             & T                             T &                             : 8               ",
"              q &                             & :                             M :                             o q               ",
"              : &                             & :                             ( M                             X &               ",
": & : q : & 2 & + & + o : ..8 5 8 1 & 2 + 2 & & + & 2 2 5 2 2 + : : 8 2 & & & & 2 + 2 w 2 M 7.: + 2 : o & : & X . + 8 q H k 8 q ",
"^ 2 : 2 q q q : : 2 : & : M ( q 2 & 2 8 : : 2 : o o & * 2 2 2 o & q 8 k 2 2 : @ : ; & X + 8 H & : M : & & 2 1 : 2 2 q q X + 2 q ",
"H                             q 8                             - :                             : >                             q ",
"#.                            q 2                             : q                             ( >.                            : ",
"H                             2 +                             : 2                             w M                             & ",
"u.                            : o                             : :                             & 2                             q ",
">.                            & +                             & :                             2 :                             & ",
">.                            + &                             o &                             M 2                             : ",
"( 2 2 2 & : : : & X : : & q 2 : 2 : : H : & 2 T M 8 2 & : 2 : : + & : 8 & + o & 2 : 2 M : 2 2 2 2 M q 8 : 2 : : q >.T 8 2 T o.: ",
"t.q q 8 2 6 8 2 : : & o : 2 & : : : q q & o : 2 2 2 8 : : : + & + : o : : 2 & : : 2 H ( : & : + 8 : 2 8 & & + o + T T q 2 & T : ",
"              & :                             : 2                             H :                             X &               ",
"              : I                             2 +                             8 8                             & 8               ",
"              2 &                             & :                             2 8                             ( q               ",
"              : +                             q 2                             q &                             q q               ",
"              2 2                             & &                             = :                             & 8               ",
"              8 H                             o &                             : o                             & :               ",
"#.q T 8 : 2 & : & q 8 w ^ 3 & M T T M M 8 8 2 + & + + o 8 : + + : 2 M 2 H T 2 & + 2 : : : : : & : X 2 & : : 2 & : Z 7 : & : : X ",
"( 8 7 M : 2 + 2 : 2 h 8 q q : : 2 H : + 2 2 : + o o o o & : & 2 2 & & : U : : o + & M : + & 2 & : + 8 : & & & o & & + & : M 8 2 ",
"X.                            M 8                             2 H                             q 2                             #.",
"T                             : :                             & T                             H M                             T ",
"u.                            2 :                             : &                             M M                             + ",
">.                            8 2                             & &                             & :                             2 ",
"H                             & +                             2 8                             + +                             : ",
"(                             + :                             2 M                             : 2                             8 ",
"8 : ; + + & & & & : q M 2 & + o 2 H 2 : 2 & o & 8 q 2 O 2 2 : 2 2 : 8 M & & & : : + 2 2 2 o o + + + & + & : : T 2 & 2 2 2 & 2 T ",
"t.#.7.q * 2 8 2 : & & H ( M & : 2 : : + 2 : + & 2 8 + + 2 & : 2 : & q 2 2 : + & + & 2 M 2 & o : : : & o & : : 2 & & & : 8 8 k T ",
"              2 :                             & :                             : +                             + 2               ",
"              & &                             & :                             2 :                             : 8               ",
"              2 q                             M 2                             q :                             : :               ",
"              q 2                             A :                             8 8                             : :               ",
"              : &                             : *                             & o                             : &               ",
"              q M                             8 &                             2 %                             2 &               ",
"w X + 2 o X 8 M 8 : & : 8 : 8 T 4 2 2 + : ( 2 8 o & 8 8 : X & : % o : H 2 & 8 = 2 2 #.#.( 2 & : 8 & : : & X O : 8 2 H 8 & o : o "
};
