/* XPM */
static char *d033e95cb8fd4bb28b248b5180ec71b3cCOUH0J7bieCVinB[] = {
/* columns rows colors chars-per-pixel */
"64 64 256 2 ",
"   c #030203",
".  c #0C0201",
"X  c #030409",
"o  c #0A060B",
"O  c #060A0C",
"+  c #0B0C0D",
"@  c #0A0A06",
"#  c #140301",
"$  c #1A0401",
"%  c #140904",
"&  c #1B0B03",
"*  c #140D0B",
"=  c #1C0C0A",
"-  c #16070A",
";  c #0C110F",
":  c #1B120A",
">  c #0C0E12",
",  c #090B14",
"<  c #110D14",
"1  c #120F19",
"2  c #0D1213",
"3  c #0E1319",
"4  c #121214",
"5  c #111319",
"6  c #191918",
"7  c #230500",
"8  c #230C02",
"9  c #2C0B01",
"0  c #280A05",
"q  c #370B03",
"w  c #24140C",
"e  c #2A140A",
"r  c #2A1406",
"t  c #381807",
"y  c #2D1D13",
"u  c #251A12",
"i  c #361C13",
"p  c #320E11",
"a  c #3A230A",
"s  c #382617",
"d  c #2E2717",
"f  c #3A2923",
"g  c #3D3326",
"h  c #312D28",
"j  c #451906",
"k  c #4E1804",
"l  c #47280B",
"z  c #472916",
"x  c #552B17",
"c  c #4A3219",
"v  c #57371B",
"b  c #552409",
"n  c #64381C",
"m  c #6D3014",
"M  c #442E21",
"N  c #483625",
"B  c #573A27",
"V  c #473932",
"C  c #573128",
"Z  c #673A26",
"A  c #6C3E29",
"S  c #58452A",
"D  c #574537",
"F  c #4B483D",
"G  c #674428",
"H  c #76462B",
"J  c #684735",
"K  c #774B37",
"L  c #795438",
"P  c #6C5137",
"I  c #7A421F",
"U  c #544F46",
"Y  c #645B4C",
"T  c #6A5948",
"R  c #755B47",
"E  c #675C53",
"W  c #725A50",
"Q  c #6E614E",
"!  c #78634C",
"~  c #6E6353",
"^  c #6D6758",
"/  c #736454",
"(  c #7A6654",
")  c #756A5B",
"_  c #7B6C5C",
"`  c #776758",
"'  c #7D705D",
"]  c #786B62",
"[  c #7E7262",
"{  c #7E766A",
"}  c #6D6F64",
"|  c #8C3D14",
" . c #884D35",
".. c #875839",
"X. c #965A37",
"o. c #8C4D2D",
"O. c #A25D35",
"+. c #98643E",
"@. c #8E633C",
"#. c #A7653C",
"$. c #B66E3D",
"%. c #A24B1D",
"&. c #895B43",
"*. c #945C47",
"=. c #8A674A",
"-. c #976847",
";. c #836B55",
":. c #826E5B",
">. c #896B55",
",. c #966B55",
"<. c #83725D",
"1. c #8B725C",
"2. c #8C7056",
"3. c #93735B",
"4. c #9A775B",
"5. c #9D744D",
"6. c #A86A47",
"7. c #A9744B",
"8. c #B6784B",
"9. c #A47453",
"0. c #AD7B5B",
"q. c #A77757",
"w. c #B67B56",
"e. c #AA6B4E",
"r. c #837464",
"t. c #8A7664",
"y. c #867866",
"u. c #8B7A65",
"i. c #867A6A",
"p. c #8B7C6B",
"a. c #847569",
"s. c #947C64",
"d. c #907E6B",
"f. c #987864",
"g. c #897B72",
"h. c #887366",
"j. c #A77A64",
"k. c #B27E65",
"l. c #A55D45",
"z. c #C87849",
"x. c #B98359",
"c. c #AD825C",
"v. c #8D816E",
"b. c #93826D",
"n. c #9B856D",
"m. c #8D8271",
"M. c #8D8779",
"N. c #938473",
"B. c #9A8672",
"V. c #9C8D7B",
"C. c #988A76",
"Z. c #9E917C",
"A. c #A88669",
"S. c #B88768",
"D. c #A58B74",
"F. c #B68D75",
"G. c #A6947D",
"H. c #B99578",
"J. c #BB906F",
"K. c #BEA07E",
"L. c #C7875A",
"P. c #D58B59",
"I. c #D7945A",
"U. c #C28A4D",
"Y. c #C68B68",
"T. c #D48D65",
"R. c #CA966A",
"E. c #D79868",
"W. c #C28D73",
"Q. c #CA9778",
"!. c #D69B78",
"~. c #E59E76",
"^. c #D9A36B",
"/. c #CEA57D",
"(. c #D9A678",
"). c #E6AA79",
"_. c #F2B16F",
"`. c #EB9A5B",
"'. c #FFC97D",
"]. c #9C8F83",
"[. c #A39583",
"{. c #A69986",
"}. c #AB9D8A",
"|. c #A99985",
" X c #B79D84",
".X c #AEA18E",
"XX c #A7A08E",
"oX c #BAA48A",
"OX c #B2A593",
"+X c #BCAA93",
"@X c #B6AC99",
"#X c #BAAC9A",
"$X c #B5A797",
"%X c #B9B19E",
"&X c #A7A79B",
"*X c #BBB5A7",
"=X c #CD9D85",
"-X c #C2A68A",
";X c #C8A88A",
":X c #DDA383",
">X c #DAAC84",
",X c #DCAC8C",
"<X c #D5A886",
"1X c #DBB28A",
"2X c #C8AC93",
"3X c #D7AB92",
"4X c #D9B597",
"5X c #C8B399",
"6X c #E4AA88",
"7X c #E5B38A",
"8X c #E3B393",
"9X c #E3B59A",
"0X c #E4BA9C",
"qX c #EABB9C",
"wX c #E9B896",
"eX c #F3BB97",
"rX c #ECB08E",
"tX c #C7B9A8",
"yX c #D8BBA5",
"uX c #EBBDA3",
"iX c #E2BCA2",
"pX c #F1BFA4",
"aX c #F9C399",
"sX c #F2C793",
"dX c #C8C1AC",
"fX c #D6C6AD",
"gX c #C9C3B3",
"hX c #D6CAB8",
"jX c #E4C3A5",
"kX c #ECC4A3",
"lX c #EBC4AA",
"zX c #EDCAAC",
"xX c #EAC7A8",
"cX c #F3C2A4",
"vX c #F3CAAD",
"bX c #F5C7A9",
"nX c #FBD4AB",
"mX c #E9CBB3",
"MX c #F3CCB3",
"NX c #F8CDB5",
"BX c #EED1B7",
"VX c #F4D3BA",
"CX c #F9D5B9",
"ZX c #FEE2BC",
"AX c #EFD19C",
"SX c #FBDBC4",
"DX c #F7DBC6",
"FX c #ECD4C7",
"GX c #FDE4CC",
"HX c #FFEBCB",
"JX c #FBE4C5",
"KX c #FCE7D3",
"LX c #FFF2D9",
"PX c #FFF8E7",
"IX c #FDFBF2",
"UX c #D7C9C2",
/* pixels */
"+X+X+X+X+XoXoX XG. Xs.( / ( <.u.1.s.s.s.D.D.D.D.D.D.D.D.|.|.G.G.G.|.|.|.|.}.|.|.}.|..X}.OX.X|.}.}.}.{.{..X[.|.G.}..XOX$X@X#X%X%X",
"+X+X+X+X-XoXoX XG.D.T D D D T W R ! ! ( ;.( R ! ( T ( ( <.:./ t.t.<.<.u.b.:.r.i.p.N.v.u.p.p.i.v.p.N.v.p.C.C.{.}.}.}.OXOX@X#X%X%X",
"+X+X+X+X-X-XoX XoXn.T T T W ( ( _ _ / / _ _ _ _ / r.~ r.[ _ _ [ _ [ [ ` r._ _ ( _ r._ r.r.[ Q ~ Q E Y ~ ( Q t.{.}.}.OXOX@X#X%X%X",
"+X+X+X-X-X-XoXoX Xu.! <.<.u.u.p.r.r.` W _ i.u.:._ r.p.m.p.m.p.a.p.[ r.] r.p.r.p.r.r.[ _ _ r._ _ / / ~ _ _ T _ {.}.}.OXOX@X#X%X%X",
"+X2X2X-X-X-X-X-XG.;.1.<.t.u.u.d.p.p.r._ p.C.d.<.b.t.C.u.N.N.[.N.^ F V F a.].].N.p.i.m.` / p.m.g._ i.i.y.u.t.i.[.}.}..XOX@X#X%X%X",
"2X2X2X;X;X;X;X-XD.;.u.1.u.u.d.B.u.t.:.t.b.b.u.t.t.N.d.C.V.V./ f # . . . & s / ].V.p.N.r.i.m.N.p.r.i.i.i.i.i.u.Z.|.}..XOX$X@X#X%X",
"2X2X2X;X;X;X-X X3.;.1.1.t.u.b.b.t.:._ u.b.u.t.b.b.N.N.N.N.g.w . - . . % . $ $ s g.N.p.i.m.m.C.m.v.i.p.N.v.p.u.V.|.}..XOX$X@X@X%X",
"2X2X;X;X;X;X-XH.>.1.2.1.:.1.s.t._ <.t.p.N.p.r.p.N.p.m.g.].D . % . % # . : M.f # N N.N.i.i.N.V.p.i.i.p.p.y.v.y.N.}.}..XOX$X@X@X%X",
"2X5X;X<X<X;X;X4.( ( ;.1.;.s.u.u.( :.r.N.N.y.t.u.b.p.p.d.a.& = . . . . . Z 3XK z y r.m.m.u.b.B.i.y.i.p.p.p.y.u.p.|.}.}.OX$XOX#X#X",
"2X5X<X<X<X<XH.2.! ( ;.;.;.s.d.u.( ( <.d.p.r.y.p.p.p.i.N.Y # # . . . . . R 4.Z v e ) i.a.i.N.C.i.i.i.i.y.t.t.<.' {.}.}.OX$XOX#X#X",
";X3X>X>X>X1XF.;.;.1.1.2.;.s.u.r.( ! <.p.y.<.t.i.u.u.r.p.N # % # . = = $ =.,.q.A.B [ i.) a.m.m.i.i.i.i.r.r.r.t.' G.}.}.OXOXOX$X@X",
";X<X>X1X>X1XA.=.2.3.4.3.>.3.1.:.! R ;.u.t.<.t.u.i.r.i.h.s $ = # # # $ z j.q.W.4X;.r.a./ r.m.N.i._ r.i.r._ r.<.' V.|.}..XOXOX@X@X",
">X>X>X7X1X>Xq.=.2.2.4.q.q.4.3.1.! R ;.t.<.t.u.p.p.r.d.h.y & & . $ e 8 x Q.rXeXcXF.:.t.r.v.i.p.r._ r.i.r._ [ ' _ C.|.}.}.OXOX$X@X",
">X1X7X7X7X/.0.4.-.5.c.S.Y.S.A.A.4.1.s.u.<.u.t.u.i.u.p.[ 8 w $ # w r 8 j !.rX).6X;X1.<.d.b._ r.r.r.a.r.r.r.i.t._ b.|.}.}.OXOXOX@X",
">X1X7X7X7XQ.0.c.9.c.R.(.(.Q.J.S.D.n.D.b.u.d.r.r.r.r.r.T 8 e $ % $ w e t j.6X6X<XD.1.r.p.v.[ i.g.[ [ [ r.r.r._ _ p.{.|.|.OXOXOX@X",
">X7X7X7X7XS.9.c.c.Y.).).).^.R.S.A.D.D.B.B.V.p.p.i.:.<.V 8 0 & = = % $ 7 x e.Q.W.3.B.V.N.C.M.M.g.{ r.r.r.r._ _ _ u.{.|.|.OXOXOX@X",
"/.7X).).7Xc.7.e.0.E._._._.).R.Q.J.A.A.s.B.V.i.m.d.t.T t r 0 = - w % % . r t K j.f.V.v.M.m.N.M.N.m.C.p.i.v.' ~ [ m.].|.}..XOXOX$X",
"1X7X).7X!.q.9.0.4XCXnXsX_.^.(.S.S.D.n.s.V.B.p.p.r.D i $ 8 $ = % $ $ # 7 v *.b H f.A.D.B.N.N.N.m.p.N.p.i.v.r._ i.p.V.{.}.}..XOXOX",
"(.).).).Y.9.-.A.PXIXPXnX).).R.S.A.A.s.s.V.b.p.u.D s s $ $ $ $ & . $ z K H bXS...<XiX2XD.B.B.N.p.p.N.m.i.i.r.' r.p.V.{.{.}..X.XOX",
"(.6X(.(.x.5.@.5XIXIXIXSXsX_.E.Y.c.A.3.1.n.s.u.R B D 8 8 & $ e $ % $ Z e. .cX9XJ.S.bXuXF.s.u.y.i.p.N.N.i.r.[ [ [ i.V.{.{.}.}..XOX",
").6X(./.5.-.-.CXPXPXPXHXsX_.I.U.c.4.2.1.d.1.;.B s.M # $ % $ e 8 & # A ,.-.bXkX0Xq.:XbXF.d.m.i.i.y.p.v.r.[ r.r.r.i.C.[.{.}.}..X.X",
"(.(.>XH...@.-./.bXCXHXnX_.`.P.x.c.3.2.t.u.1.L G H.i $ = = . N t # $ C *.q.nXbX7X:X0.uXD.<.i.a.) _ r.i.[ _ _ ' [ r.C.[.{.{.}.}..X",
"^.^.<XA.L @...X.8.I.sX^.U.U.7.9.q.2.;.<.u.:.J =.F.7 8 # % & J B $ 0 9 K F.bXbXeXrXe.8X X<.r.[ _ _ r.r._ / / / ` [ m.Z.[.{.}.}.}.",
").(./.A.......6.I.'.nXsX^.x.j.j.3.>.( ( <.;.G F.L 7 # - w # P L 7 0 9 t 3.nXaXrX~.w.W.H.( ' _ ` _ r.r._ / ~ ~ / _ v.V.[.{.{.}.}.",
"@.Y.,X0.5.7.8.P.I._.'.sXeXE.0.q.3.>.T / ! R L H.z $ - $ $ $ c 3.l i 7 9 Z 9XeXrXL.6.Q.F.R [ ] ` / a.] ] ] E Y ) _ u.B.G.[.{.{.}.",
"  & D P >.q.L.~.`.`._._._.E.8.q.>.( ( _ W J 2.H.r $ $ i e $ $ R P C t t v q.aX7XL.8.Q.F.( [ _ / T ( ` ) ^ Y E ) E _ V.G.V.|.|.}.",
",     . l 0.L.P.z._._.~._.E.8.@.2.B V T ~ T F.4.7 8 $ J e 7 $ 7 B B J t t A rX).L.Y.!.j.! ~ / ( T Q Y Y Y Y ) _ Y _ C.V.V.{.{.{.",
"3 o # 8 q e.8.z.I.^.^.E.E.T.w.-.3.y . = f B -XL 7 7 z P P # = $ 9 x j J x b Y.6XL.w.S.2._ ' / W ~ E Y Y Y Y ^ ~ Q ) N.C.Z.G.G.[.",
"    @ w 9 *.o.%.z.%.P.I.L.S.L L ! s 8 $ # i ;XK 7 9 =.&.R i = w 7 i j A K j ..!.S.9.j.( / ^ ~ ` ) E Y Y ) ] [ ] / { v.m.Z.C.G.G.",
"<   5 6 . 9 q m | | z.z.z.8.v v G S S N r C 3XK 9 q 0.W.n B i $ e 9 t J K H k 9.S.q.1./ E Y E [ / E ` ~ _ _ / [ r.a.m.m.C.B.G.D.",
".   6 O . $ 7 7 9 b k k b b t t B B v v z L 4X=.7 q 0.:X..k 9 e $ r q C P ,...b 0.,.N d d u y s s S Q R T P D v.N.Y i.m.m.N.Z.V.",
"X X ;   $ q p p p $ # & . & M s c l a v l P ;XA.9 t k.6XY.A t N s 9 q j l v -.b H 4.P ~ ^ V g N N S P v v S c <.Z.M ~ g.i.C.V.V.",
"    4   6 # 7 7 0 $ $ - # 8 l l l a t t 9 P ;XS.j q X.>XR.o.q ,.=.B t q t j z v l v L v G G v G v G G n v v c d d * F } { m.N.B.",
"    6   * . . $ i f - . # r c t l G ! 3.4.A./.J.9.5.q.R.R.x.9.Q.J.A.A.A.F.F.F.A.2.=.L l l v v v c v v v S B s y g h F E ] p.b.b.",
"  O       * ].$XUX$X. - . $ J 3.K.4X4X4XjX4X<X1X,X8X/.^.(.).1X/.>X1X1X0XjXkXkXjXzX3X4XH.4.G l c l S a z S S D d g h g ~ { [ t.B.",
"  6 h   U &XgXtXgX*XE 8 N s.yXxXjXjXjXjXjXkXkXvX0X9X7X(.^.(.>X1X1XwXkXkXkXxXzXzXxXjXzX0XkX4XH.=.z 8 a t a s S :   @ 6 U ^ ) r.p.",
"F gX*XM.dXgX*XgXtX%XtXD.4XMXzXjXBXmXBXBXBXVXMXzXMXuXkX7X^.^.,XbXkXvXMXNXVXVXVXVXCXxXzXxXxXxXkX0X2X>.z t a i y & .   : U ^ ^ [ [ ",
"tXhXgXgXdX@XdXgXdX5X2XjXzXzXzXVXVXSXDXDXSXSXVXSXMXvXcXeX(.(.eXcXNXMXVXVXSXSXDXGXGXSXCXCXvXzXbXkXlXlX;Xc i z s g y . : F Y Y ^ ^ ",
"hXhXfXfXfXtX*XtXdX5XfX4XkXzXVXDXDXGXJXDXHXGXSXSXCXNXqXwXE.(.aXcXvXNXCXGXHXKXHXHXJXGXGXGXCXCXNXvXzXvXMX-Xc s s e y y s g F Y ^ ^ ",
"m.~ ' B.|.tXgXtXtXfXjXNXCXMXDXDXHXHXJXGXGXJXGXSXSXNXaXeXR.(.eXbXnXCXZXJXJXHXHXKXKXKXHXGXSXSXSXSXZXnXjXoXz t y y y d s y f M V T ",
"y u f % % Y M.%X*XU Y g.#XFXGXKXKXKXKXKXGXGXJXSXCXNXcXeX!.E.aXcXCXSXSXGXHXHXHXGXKXJXHXLXKXLXDX#X] g h @ . d a a z a s f d f s s ",
"a c M N s y s %XXX.     % f / }.mXVXGXHXHXHXHXHXHXZXnXsXE.E.aXnXZXJXJXHXHXLXLXLXPXPXKXUX*Xg.V % .     . N +X! L L z c s M s s M ",
"x z z N s a >.tX5X_ . 4 ,     . % y M V D T / _ t.s.f.f.=.,.H.;X5XyXfXfXyX+X[.M.E U h 4 o o o > 2 4   s mXMXjX=.G H G v l a M M ",
"x z s y a a Z 3X4XyXF   X , 3 1 o o X X X X         . . .   . - % - - - % .     X   O 2 + + 4 , X ; & 2XCXuXMX3XL K H  .G v N s ",
"z i s y s r K 9X9XiXmXY @ X + X + O O O 2 3 2 2 2 2 O > 2 2 ; O , > > 1 5 5 2 2 4 5 4 + 4 ; + 4 6   C.DXNXnXuXcXW. .+. ...L B a ",
"e i w % d t F.3X8XuXmXFXs . . * o o + + @ @ + + * + * * 4 4 2 2 2 2 2 O > 2 2 3 , > 5 5 > 1 1 <   Y KXDXVXNXbXcX8Xq.X.....&.H v ",
"# $ u y 8 B -X3X9XkXzXDX$X# * o > > + + o + > < + o < < < 1 1 > 2 ; ; 2 2 2 > > 4 > 5 5 > > 5 o V FXDXDXSXMXnXqXqXQ.H ...... .H ",
"$ $ e e i J 2X;X4XkXlXVXKX{   4 ; O O ; 2 2 ; ; ; O 4 4 2 2 3 2 4 4 4 < 4 < < < > 6 O O 6 4 O u hXKXDXDXDXCXkXcXqX0X=.Z G ....o.",
"$ 8 8 e r >.2X;X9XkXkXNXBXFXV   5 , , 4 + + + + 2 2 2 2 4 4 4 2 2 5 2 4 4 4 2 5 3 , 5 2 4 @ w tXKXDXDXSXSXVXMXbX0XqXQ.H H L L L ",
"* 6 = w $ 1.2X;X4XlXzXxXBXFX#X: 4 5 5 + 6 + + + 2 > 2 2 4 4 4 4 O , > 4 4 4 2 5 5 2 , 4 % w tXKXDXDXSXSXCXNXlXlXuX9X3X-...L ..L ",
"4 * . $ $ f.3X=X4XiXzXMXzXlXmXB.. X + + + 4 > O > > > > 2 2 4 4 6 4 + + 4 2 , 2 3 O 4 : w tXKXSXSXSXSXCXVXvXlXuXbXuXqXq.n n &.L ",
"% : D >.=.S.Q.<X3X4XjXlXjXvXqXlXN.: % . + + X O , , O + > > > > X + + + 2 , O , + 6 * $ #XGXSXSXSXCXCXNXvXlXuXuXuXuXuXW.v b L L ",
"J 3.H.S.9.Y.!.Q.,X4XiXjXlXuXcX9XmX}.# . @ @ O , + + + + + + + + > 4 2 , O O O O * . y tXDXSXVXSXCXNXvXbXuXuXqXuXuX0X9X9X&.j H H ",
"0.k.q.7.6.w.Q.:X<X,X9X0XkX9XkX0X9XiXR # . * +   O O X X @ o + o + O X X O + . . # J yXSXMXNXCXvXbXcXuXqXqXqXqXuXbX0X9X4Xj.b v x ",
"w.w.7.e.*.9.Q.Q.Q.,X,X<X8XbX0XqX8X9X3Xs.&   @ +                 X     X     # r s.lX9X9XbXbXNXcXqXwXwXwXqXqXqXqX9XqX9X3XQ.L x x ",
"e.6.e.9.&.&.Q.H.Q./.:X:X8X,X8X9X7X7X,X2X|.f                           .   & T -X4X,XwXeXeXeXwXwX8X8X8X8XwXwXqXqX8XqX,X,X;Xq.Z L ",
"e.e.X.-...A j.W.W.Q.!.=X<X,X3X8X,X<XQ.Q.<XW.K 7 . .   X         O X   # l 9.:X!.).6X6X7XrX7X6X6X6X6X8X8X9X9X9X9X9X9X,X6X!.6.X.e.",
"*.-.-...K Z H S.J.S.W.Q.!.!.(.!.!.!.R.Y.S.S.q.=.i %     X X   X     . M A.<XQ.(.(.6X:X:X:X:X6X6X6X:X:X6X8X,X,X8X,X8X,X=XW.o.6.7.",
"*.&.&.H H Z j K k.k.S.Y.Y.Y.E.E.T.T.L.8.6.X.I x B s & . .       . . & a G &.0.!.!.!.:X:X!.!.!.!.!.:X:X:X:X6X,X<X,X:X!.!.6.o.e.w.",
".. .H A v x t t J ,.j.j.S.S.w.8.6.#.#.O.O.O.X.X.....P J B B N N N v G G n n H A X.6.8.w.Y.T.T.T.!.!.~.!.!.!.!.:X<XQ.!.S.m o.6.e.",
"K A Z C z t i $ $ i D R R H o.X.7.w.x.w.8.8.6.6.6.-.-.-.-.2.=.=.......@.+.+.X.X.o.X.#.#.$.$.$.6.6.e.w.T.!.!.!.Q.W.W.W.A m  .6.6.",
"J C v z i 8 & - . . . $ 7 x -.w.w.w.w.w.x.x.8.7.7.#.+.+.-.-.-.-.-.7.7.6.7.6.6.8.8.z.P.T.T.P.P.P.P.z.6.O.6.Y.Y.S.S.j.K j Z  .X.l.",
"C z i 9 8 % . o       $ v 9.w.#.8.8.x.x.x.x.w.w.0.7.6.6.5.-.7.9.7.0.w.7.7.8.x.x.L.P.E.E.~.E.E.T.I.E.P.6.X.*.9.q.>.K 9 q Z H  .X.",
"i i 0 0 $ # .       . M 4.7.O.$.$.8.8.x.L.x.x.x.0.w.0.9.9.q.q.9.0.0.0.x.x.w.x.L.T.T.E.E.E.E.E.E.E.I.P.L.6.H n J B z 9 j j Z H  ."
};
