/* XPM */
static char *b300028f085a40ee9f16640deb28e732SEKBMrwSjATHaiP6[] = {
/* columns rows colors chars-per-pixel */
"64 64 256 2 ",
"   c #020302",
".  c #060708",
"X  c #040614",
"o  c #181917",
"O  c #141309",
"+  c #1E2615",
"@  c #292912",
"#  c #13132A",
"$  c #28162F",
"%  c #1B2B31",
"&  c #282828",
"*  c #282939",
"=  c #372B38",
"-  c #2A343A",
";  c #383739",
":  c #2E2E2C",
">  c #201C1A",
",  c #74120C",
"<  c #752714",
"1  c #6C1D2A",
"2  c #44393A",
"3  c #542D31",
"4  c #6F2D2F",
"5  c #4B0D19",
"6  c #384B35",
"7  c #2D4213",
"8  c #684D12",
"9  c #494A33",
"0  c #6F4D32",
"q  c #606620",
"w  c #18314D",
"e  c #2A2C45",
"r  c #2D3244",
"t  c #2D334B",
"y  c #2A3A48",
"u  c #333444",
"i  c #3B3B44",
"p  c #33354B",
"a  c #36394C",
"s  c #3A3C4D",
"d  c #383747",
"f  c #353552",
"g  c #353A53",
"h  c #3A3C53",
"j  c #3C3D5A",
"k  c #373958",
"l  c #2C3453",
"z  c #323A63",
"x  c #092652",
"c  c #463948",
"v  c #473755",
"b  c #453D64",
"n  c #633E45",
"m  c #39424A",
"M  c #3D4154",
"N  c #394459",
"B  c #2C4852",
"V  c #3A4965",
"C  c #395469",
"Z  c #365875",
"A  c #2E5074",
"S  c #34647A",
"D  c #245C65",
"F  c #484748",
"G  c #42435B",
"H  c #464657",
"J  c #564955",
"K  c #4B5359",
"L  c #585657",
"P  c #515348",
"I  c #6E5053",
"U  c #536757",
"Y  c #6A6458",
"T  c #746F51",
"R  c #464A64",
"E  c #45566A",
"W  c #585867",
"Q  c #4E5672",
"!  c #6F5969",
"~  c #50696F",
"^  c #68686A",
"/  c #766767",
"(  c #77776B",
")  c #686977",
"_  c #786A77",
"`  c #777679",
"'  c #697773",
"]  c #8E1A0F",
"[  c #AA1C0C",
"{  c #912915",
"}  c #AD2C15",
"|  c #8F342E",
" . c #B03633",
".. c #831E22",
"X. c #C63924",
"o. c #DD362B",
"O. c #937416",
"+. c #B24936",
"@. c #8C752C",
"#. c #AC7431",
"$. c #9E502D",
"%. c #D24F35",
"&. c #8D3544",
"*. c #BC3641",
"=. c #924E4E",
"-. c #AB5250",
";. c #8E7353",
":. c #B26F53",
">. c #867979",
",. c #90706E",
"<. c #B17370",
"1. c #A05B65",
"2. c #D0544E",
"3. c #ED5252",
"4. c #D06852",
"5. c #CE726E",
"6. c #F26F6F",
"7. c #E66760",
"8. c #C53F40",
"9. c #738B37",
"0. c #538D6C",
"q. c #6F8B73",
"w. c #6C9353",
"e. c #90922F",
"r. c #AB9136",
"t. c #8C8014",
"y. c #928952",
"u. c #B09253",
"i. c #908A70",
"p. c #AE9272",
"a. c #93AC6F",
"s. c #B0B275",
"d. c #B8AB51",
"f. c #CEB551",
"g. c #D08B74",
"h. c #F18774",
"j. c #D7AB79",
"k. c #F5EB55",
"l. c #D1D174",
"z. c #E9D56F",
"x. c #F5EA72",
"c. c #E0CD58",
"v. c #BFB95E",
"b. c #32558B",
"n. c #2C6688",
"m. c #376788",
"M. c #297899",
"N. c #367798",
"B. c #316994",
"V. c #2F55A7",
"C. c #2C79A7",
"Z. c #3274AD",
"A. c #19738F",
"S. c #50718C",
"D. c #797A86",
"F. c #696F88",
"G. c #467CAC",
"H. c #435390",
"J. c #267AC5",
"K. c #27398D",
"L. c #887986",
"P. c #8B738C",
"I. c #A87884",
"U. c #D27B85",
"Y. c #1B8CA8",
"T. c #2B84AA",
"R. c #3885A4",
"E. c #2A89B4",
"W. c #398AB6",
"Q. c #2B94BA",
"!. c #3795B7",
"~. c #248999",
"^. c #548A94",
"/. c #718B8F",
"(. c #4D8FB1",
"). c #6D97AB",
"_. c #70AFAC",
"`. c #57A7A1",
"'. c #65C7AB",
"]. c #3899C4",
"[. c #2D97CB",
"{. c #37A4C9",
"}. c #37AAD7",
"|. c #32AFD4",
" X c #3CB6E3",
".X c #4C95CC",
"XX c #4CAED1",
"oX c #68B3CA",
"OX c #72AFCC",
"+X c #60A9DC",
"@X c #3FC5E4",
"#X c #55CAEA",
"$X c #74CDDE",
"%X c #888689",
"&X c #948788",
"*X c #888997",
"=X c #978B97",
"-X c #979799",
";X c #8C968D",
":X c #A49B9A",
">X c #AB8F90",
",X c #8EAE90",
"<X c #ADAB95",
"1X c #9A9AA6",
"2X c #9192A9",
"3X c #A997A6",
"4X c #9AA4A9",
"5X c #95ABB5",
"6X c #A5A6A9",
"7X c #B3A8A9",
"8X c #AAAAB5",
"9X c #B5ACB5",
"0X c #B6B7B9",
"qX c #AEB4B2",
"wX c #D99589",
"eX c #D38F8E",
"rX c #F3908A",
"tX c #D3A991",
"yX c #F4AA98",
"uX c #D397A8",
"iX c #CEB3B2",
"pX c #F3B0AE",
"aX c #E798A5",
"sX c #91CAB3",
"dX c #B2CBB0",
"fX c #B0C791",
"gX c #D6CC94",
"hX c #EDD28E",
"jX c #F0EA88",
"kX c #CDCCB3",
"lX c #F5CEB2",
"zX c #F5EAB2",
"xX c #DBE49B",
"cX c #8FB5CB",
"vX c #B9BAC5",
"bX c #ABB4C8",
"nX c #96B7E4",
"mX c #C6BCC6",
"MX c #CEB7CC",
"NX c #E6B9CF",
"BX c #90C7D4",
"VX c #BAC2C8",
"CX c #AFC9D5",
"ZX c #98CCE8",
"AX c #B2D0E4",
"SX c #90E5FF",
"DX c #A8F9D3",
"FX c #C7C7C9",
"GX c #C9CAD4",
"HX c #D5D4DA",
"JX c #D0CFD4",
"KX c #EBC9CD",
"LX c #D8D9E4",
"PX c #C4D9EC",
"IX c #EAE7F3",
"UX c #F4E3D8",
/* pixels */
". o       o     # H p h h j t j k k k g k a p a r a h d p k h p j h a h h h s s a a a a a a a a m - m s f t v t m.Z.W.^./.,Xq.0.",
"        .   . o . d G j e b h h R N g g g a M G M G G h h N N g h s a s s a a a a a a a a a a a y y G s j f h e m..XW.(.,XdXsXq.",
"W X ; ` P     . o u G G e j G h t t k N N a r r G H G h h j j p h h h s a a a a a a s s s s a a y a s * g t h l b..XZ.(.q.U q.q.",
"0X0X;X^ ;XL   L ) s h G h j j j G N k k h s h M a h h a g k k a h M H h s s s a a a s h h h a a g g a * G g p z B..X.X.X~ @ P ,X",
"1X0X%XY :X-X. -X6XH h G j j j h k g g h s a d s u a s h j M j h s m M s s s s a a a h k k h a g f p s H ) N y l B..X.X(.~ 6 9 a.",
"%XW ` 0XkX-X. %X1XK G h h G j g k h h M M s a s a a s h h j k s a s s a a M s p a a h h h h g f k e d G ~ N y w G..X+X.Xq.7 @ 9.",
"%X0X6X0XHX-XO %X1XH G h R G p j p u u d p r r u s a a a s h k h s m s d m H M p a a g g k k f f j t a r m y B w Z..X.X).U . O 9.",
"-X8X-X0X0XP O ` 8Xs p j Q j e G u W L.8X8XD.K - H s a a s h N G m m m s H K H a a a f f f f f k f f H u y B N w B.+X+X).( @ q l.",
"` -X^ %X(   > ` 1XH h j b G t s W 1X=X1XvXvXGX^ * H s u R p M a H - H d ) *XG M M h f p f k f f f f d u y y y l B.+X.X_.T 8 r.z.",
"*X-X; & . O . ` 1XH h j h h f R *XD.D.D.0XvXvXvXK * u r h g h M s - m - K ) u d h a p p f f f f k f d d a B y w G.OXOX).q q f.x.",
"W ) ^ o   o . ` 6XH h G f f R F.*XD.W D.8XD.1XGX6X* a a r M t s d d s r s H u d a p p p g g f p f a d d g g r e ).OXcX/.8 r.z.c.",
"D.*XFXL O   . ` 6Xh h G f j Q *X2X9XD.-X8XW =XLXHXK s s p h r p u s a d d a h h d p a h h h a d p d d d f f u r ).OXBXq.q f.z.f.",
"0X8X0X-XO     ` 6Xs f G f R ) D.6X0X9XD.-X%X%XLXFXD.- r h p p a r s u a p r M a d a h h h s a a u d s d f k c m /.5XsXa.d.z.z.f.",
"0X-X-XqXP   . ^ 1Xh h h p Q F.) L.6X=X) =X%X` -X8X6X* * M e M p h a a h d p M u a s h h h a a a ; i s f k b F F ~ ,XdXfXz.c.c.f.",
"0X6X;X-X%X.   ^ *Xs j p e F.D.) _ 3X%X-XmX%X` ) 8X8X- u s * M t G p h h p h h d a s h s s a a d ; i a h j b J F m 0.q.a.c.f.c.r.",
"-X6X^ :X0XL   L %Xs G p e D.2X) *X%X9XvXLX6X^ =X8X4Xr a r e N t G e h a r s s s a h k h a p a y i ; u p b R v 2 6 6 U y.d.f.z.O.",
"-X-X' 8X6X` m ' *Xj h b * ) 9X6X%X=X=XGXmXHX8X8X` 4Xr t g t w N v v d * m - y m N k l l g N m y d = a G R v c d : 7 q q f.c.f.8 ",
"8X4XH ^ -X;X4X6X*Xp h H * W GX*X` ` %XGXHXHX8X8X1X*Xe * l R N e k b p d m - y m p f f f k g y y d H N N h v v c 6 6 q q e.f.d.O.",
"1X%X; 6 ;X` %XW *Xd r h r r vX1X-X1X6X0XFXGXvX8XGX) * a t y g l w z w y m - m i a s h j j k g p m N B B y a h r U w.9.e.t.r.r.r.",
"D.` H ; L : L W D.M e a G # ) vX0XGXIXLXLXFXGXvXvXc - a a * r N l V w y y - ; & = u d p p p s h H N B - - s a - U w.9.e.q O.O.#.",
"` W L ' 8X0X8X6X*XG r h H * s 6XGXJXIXLXLXvXJXLX_ d d $ s H u e e k e u i ; i i u u p p d s F J F c ; ; 2 c i 6 U w.9.e.t.O.O.#.",
"qXqXqX;X%XqX6X0X1Xd d h * M a W 0XLXIXHXLXJXGX1Xd = c * i = * d c n I c c = = - a m m m i 2 2 3 3 3 3 3 3 3 2 ; P w.w.e.r.O.O.O.",
"0XVXVX0XqXFX8X1X*Xd p p p M s * ) 8XIXLXLXvX*Xd u * c c ; = J L.uXeXpXI.>X_ H g l y r - 2 3 4 | 2.5.4.4.5.<.1.I ( ,Xa.s.d.@.@.e.",
"qXqX-X-X-Xq.%X%XD.G a t Q p a d * s ) 2X*XK r u s = = = 2 / iXiXtX<.tX<.iX3XW t j p u 2 I =.5.h.6.6.3.3.6.5.1.3 ( <Xa.s.u.q q @.",
") ` ` q.` ^ ' D.F.e h R k g r * s p e * e r p a d i 2 2 3XUXiX>XtXp.wX,.>XI 3X! = c 3 =.eX5.7.6.3.6.3.3.3. .1 3 >.:X<Xy.7 @ @ 7 ",
"-X-X%X` ` %X4XVX*XW Q R t a a a p t t p g s g a * c = >XKXiXpXeXtX;.p.;.=.<.,.1.3 4 1.U.U.U.rX7.7.3.o.o.X.{ 1 n Y Y Y 9 @ @ @ @ ",
"o o > & o o o > u a G p e g g h p g k k g g p u c ; J KXKXpXeXtXtX;.pX=.aX:.=.-.| :.eXaXaXuXuXuX5.2.%.X.} ] 4 I o o O O O + & o ",
"; ; 2 9 ; : & o # d G k g k r t g k k k g l p d * c KXKXKXaXwXaX<.<.eXeX5.-.+.{ 7.h.rXeX>XP.F.*X<.$.+.} { < I P - * & & & & : & ",
": : & : : : & o * G N k N g t N k k k k k k k M c _ IXuXKXeXlXg.&.pX<.<.-.-.{ +.h.6.yXuXW S.R.(.%X0 | { < < L m e * * : o o > o ",
": = ; 9 F F - > # p t l N f g N g k N N k g g h = =XKXKXaXpX<.=.1.pXeX=.wX..| 6.h.rXpX7XE (. X#X2XI 4 ..< 4 L N w # # $ & & % o ",
"; ; : > > > > o % M j V N g g t k z V N k N R R H mXKXiX=.wX-.yXrX-.eX<.=.4 5.rXrXpXpX=X~ XX|.#X5XI 1 ..< I L N % X X .         ",
"2 9 ; & O O o o # j j j g g C B N z k k V Q F.D.c MXiXuXUXwXyXwX5.eX1.=.| =.rXyXyX5.U.>XQ OX#X$X2XI 1 4 4 I K N % X X X     . . ",
"o O o o O + O o $ v b k N C B B V V k j R E ~ ) c MXuXpXaXpXtX0 =.-.=.4 =.rXyXrX7.7.7.5.>.).SXOX,.| 1 4 I J K V w X X   .   . X ",
"9 9 Y T ;.i.;.Y J W R j g B D S A V V j N N V R H 7XpXpXpXg.eX<.<.1 5 1 U.pXlXwX5.2.3.2.1._ S.~ 1.| 4 3 J K E E % X .   . .     ",
"8 8 ;.;.y.u.y.T P H G R R V S.).C C R R V V V N m iXpXpXyXwX<.eXwX-.5 U.aXNX&X&X>X1.2.*.-.1._ L.4 4 4 I W E C E N B K H F L P K ",
"8 8 $.;.:.u.@.T F M N R V N Z S.C V R E C Z A C r :XlXyXwXwX<.eX:.+., 5.uX! B S /./ -. . .| 1 I 4 4 n L W E C C /.5XbXqX0X0XGX6X",
"q 8 0 :.u.u.e.T P K R R R N V A C V V V Z Z A Z V ( lXyXyXg.aXaX5.| < 5.uXR n.!.OX2X&.8. .} { $.1.! I W E Z Z Z S.5X4X1X0X8XFXU ",
"a.T T ;.u.u.y.q P E E E Q Q Z Z Z E C C A A b.b.l W iXtXg.:.eXU.4., , wX,.N W.#XSXcX1 [ [ [ } +.1.! W Q Q S S Z S.bX1XD.` ` 6XP ",
"DXsX,Xi.i.p.y.T U ~ R V C C A A b.Q Z C Z S b.b.b.F.=XiX<.:.-.-. ., +.5.eXv oXSXSX2X&.[ } [ ] ..I W Q ~ S.m.n.S S.CX8X%XF F Y P ",
"'.'.sX-Xi.p.i.T K E C C Z Z A m.b.Z Z Z S n.V.V.V.b.R 3Xp.< 5 , | 2.7.4.5.! S.SXBXF.=.] [ ] | =.) S.S.m.m.n.n.n.S.cXbX8X; F o o ",
"$X`.sX' i.p.i.i.U ~ 5X~ S Z n.b.b.m.m.A A B.V.V.V.H.b I 4 <  .4.h.4.4.3.2.5.L E ~ ! | ] ] | I ) ~ S.m.B.B.M.B.n.^.AXGXvX;XF ^ &X",
"DXdX' @ p.s.y.T ' F.cXS.S.m.B.B.m.m.m.n.B.V.V.V.K.z j n <.:.h.rX| , 2.%.%.8.<.I.L.I 4 | I I ) S.S.N.N.M.M.M.M.n.).AXGXGX-X6XkX7X",
"gXzXu.8 u.u.y.y.U ~ ^.S m.n.b.b.m.m.B.B.V.V.V.b.b.V c 3 wXpXyX . .] } %.X.X. .=.=.4 3 J W ~ B.Z.N.N.C.C.C.C.M.B.).cX4XqX0XiX:X9 ",
":.g.j.u.u.r.u.y.U C N.S B.n.B.B.m.n.B.Z.V.V.b.S.D.6XiXlXlXg.+.} 2.2.] { } X.] | 1 4 I ' ^.M.Z.Z.C.R.T.T.T.T.C.N.).CXVXqXFX( ; o ",
"%.$.4.u.u.u.u.T ^ E N.n.M.M.Z.N.N.B.C.Z.V.b.F.%X<XzXzXlX:.$.{ 7.3.rX4., { ] { &.4 ! /.^.~.Y.Z.Z.T.T.E.E.E.E.T.N.).AXVX0X-X/ F Y ",
"X.+.#.@.u.s.y.;.^ S.B.M.~.M.C.C.N.M.Z.Z.B.S.i.s.l.zXhXtXtXlXh.7.rXh.4.] , ..4 3 ! F.^.R.Y.Y.E.C.E.E.E.E.E.E.T.N._.CX5X0XL &Xi.i.",
"] g.p.y.s.a.i.>.) F.G.T.~.~.T.C.C.C.C.C.S.q.s.z.x.z.l.gXzXlXh.h.6.+.] ] ] | 5 - ^.(.(.(.W.].].!.E.Q.Q.Q.Q.Q.W.R.).CXGX0X: ^ ( ^ ",
", j.>X;X<X<Xp.T ) S.G.T.~.Y.E.C.E.[.Z.N.0.a.l.x.k.x.hXzXUXlX#.4.| , .., &.5 X S (.!.(..X!.!.Q.Q.Q.].[.Q.Q.!.W.R.OXCXCXD.; ; c : ",
"< tXsX_.<Xp.u.T ~ N.W.E.Y.Y.W.Z.[.J..X~ w.l.k.k.k.x.jXzXlXg.:.4.| 4 1 3 $ # z (.].].Q.Q.{.{..X].[.[.[.].Q..XR.(.).bXbXr u s s * ",
"#.gX_.`.:Xp.u.T U R..X].Q.E.W.W.J.C.(./.s.jXk.k.k.c.z.hXj.tXlXtX=.! $ $ # x Z..X{.{.{.{.{.{.].].}.}.[.{.!.(.(.OXBXcXF.p W d * a ",
"j.gX_._.6Xp.u.y.q.^.(.].Q.!.(.(.OX).,XfXxXx.k.k.k.k.k.x.l.xXkXi.-XW X x x n.+X{.{.|.|.|.{.{.{.{.}.}.[.}.{.!.oXOX).AX/.d d & * d ",
"hXgXsXBX6Xp.u.y.q.).oX.XR.R.oXZXCX0X<XkXxXxXjXx.k.k.k.k.jXfX,X/.).x x D W.+XXX}.|.|.|.|.|.|.}.}.}.}.}.}.XX!.$X).).PX) i F & & K ",
"xXdX'._.-Xp.p.y.' ^.(.(.`._.cXCXmXiXkXkXkXgXgXhXx.x.c.c.gX,X).).D x A.].}. X|. X X X}.}.}.}.}.}.|. X}.}.XX(.BX^.F.CXW F K > . : ",
"s.,X'._.;Xp.u.;.q./.).cXBXBXcX8X9X7XiXkX7X<XtXtXjXjXz.l.<X,XOX(.D M.XX#X X|.@X|. XXXXXXXXXXX X X}.XXXXXXXXoXBX/.2XLX^ ; ; o . & ",
"w.q._.`.;Xp.y.;.q.qXAXAXAXCXvXJX:X` 4XbX2X8X9XtXlXgXs.>X6XbXAXnX.X+X#X#X#X@X#X|.XXoXoXoX+XXXXXXXXXXXXXoXoXBXcX5XVXGX` >.-XF . o ",
"0.0.`.^.;X>Xy.;.i.1X2X1XCXHXvX0X6X) 5XbX2X8X:X>XiXiX>.&XMXGXbXnXZXoX#X{.|.#X{.$XBXBXZXBXOXoXXXXXoXoXOXBXBXAXbXGX9XLX%XF L F 6 K ",
"0.0.`.`.;Xi.i.;.>.%X*X8XqX6X%X-XqXD.4XbXvX=X>.,.<XiX7XmXMX8X6X*XcXnXOXoX$XoX$XBXBXCX5XbXAXcXoXBXZXCXBXCXbXbXLXFXHX=Xc J & : dX5X",
"0.0.0.0.;Xi.i.,./ ` ^ ) -X7X&X>.6X4XFXmX=X! I / 7X7X:X7X-X:X7X:X5XPXAXcXcXBXCX5X' W ^ ` /.5XAXAXCX5X4X2X4X0XFXJXFX7X= : i W q.' ",
"U U 0.q.%X>.T I P ` ` ^ -X:X&X&XqXFX7X3X! I I ! 7XdXqX<Xq.q.&X=XmXGXCXCXCXCXVX-X:X=XY 2 ` VXCXqXGXFX6XL ` JX9X%XiXKX/ J ^ ` F ' ",
"U U ~ ' ( >.i.:X&XFXHXFXHX:XL.:X0XmX>./ I ! P.P.1XkXdXdXqXdX0XGXMX7X9XGXJXGXFXiXiXiX7X&X0XHX0X0X7X:X9X0X0X9X%X^ _ &X>.&XJ = > & ",
"% % - 6 9 9 P / Y 6XqX4X0X` Y / ! L.>.,.L.P.=XP.W -Xq.i.dXFX8XmX&X` &X7X3X:X9XJXmXL.=XiXHXFX%XL L _ &X9X0XFX0XL J 7X/ >.:XP O o ",
".     . .       . ^ ' W /.^ ! I J / &XL.=X1XvXbXH 2X` ^ :X-X1X8X( P / =X=X/ ! L.iXmXHXFXmX9X_ J J F ^ FXJX0XVX6X&Xi.Y / >.>.i.: ",
"X .         . .   K m m F F J F = L 6XJXHXFXqX=XF =XP._ =X_ 3X-X( 9 L %X3XL.J ) =XGXvX^ %X9X! c $ 2XIXIXGXvXVXJXqX&XY Y T <X<XT ",
". . O .         . m % 6 i i F 2 2 P ;XqX;X;Xq.q._ =XP.P.3X>.7XY 9 6 F F _ =XP.2X*X1XvXD.W L.! c J bXLXbXbXVX4XJXqX;XY T ;.<XT 0 "
};
